<?xml version="1.0" standalone="no"?>
<!DOCTYPE svg PUBLIC "-//W3C//DTD SVG 20010904//EN"
 "http://www.w3.org/TR/2001/REC-SVG-20010904/DTD/svg10.dtd">
<svg version="1.0" xmlns="http://www.w3.org/2000/svg"
 width="780.000000pt" height="780.000000pt" viewBox="0 0 780.000000 780.000000"
 preserveAspectRatio="xMidYMid meet">

<g transform="translate(0.000000,780.000000) scale(0.100000,-0.100000)"
fill="#FFD700" stroke="none">
<path d="M0 3900 l0 -3900 3900 0 3900 0 0 3900 0 3900 -3900 0 -3900 0 0
-3900z m1339 809 c20 -11 48 -36 61 -56 22 -32 25 -46 23 -111 -1 -49 -7 -78
-15 -83 -15 -10 -238 -12 -262 -3 -9 3 -16 12 -16 19 0 8 -7 21 -16 29 -13 13
-45 16 -194 16 -200 0 -183 7 -195 -81 -5 -33 -3 -49 6 -55 7 -4 111 -7 231
-5 233 2 264 -2 326 -47 35 -25 62 -78 62 -121 0 -33 -37 -233 -53 -286 -18
-61 -73 -109 -138 -122 -57 -11 -611 -9 -680 2 -77 13 -140 116 -124 202 14
75 11 74 158 71 131 -3 131 -3 137 -28 l6 -25 192 -3 c191 -2 192 -2 192 19 0
12 5 39 12 61 20 68 16 69 -250 68 -257 -1 -279 3 -332 62 -21 23 -32 47 -37
83 -4 27 -6 55 -4 60 5 17 22 117 28 165 3 25 9 49 14 55 5 5 9 17 9 27 0 10
21 39 46 63 l46 45 365 0 c350 0 367 -1 402 -21z m1177 -26 c-4 -27 -12 -74
-19 -105 l-11 -58 -155 -2 -156 -3 -6 -35 c-4 -19 -12 -60 -19 -90 -7 -30 -16
-73 -20 -95 -4 -22 -20 -96 -34 -165 -15 -69 -34 -163 -42 -210 -9 -47 -19
-92 -23 -100 -7 -12 -36 -16 -151 -18 -79 -1 -147 1 -151 5 -7 7 -3 31 22 158
5 28 14 73 19 100 10 57 25 129 38 195 22 103 42 216 42 238 0 22 -1 22 -160
22 -88 0 -160 1 -160 3 0 11 42 192 46 199 3 4 217 8 476 8 l470 0 -6 -47z
m1183 30 c17 -10 42 -40 57 -66 27 -51 28 -69 5 -182 -5 -27 -14 -72 -20 -100
-47 -244 -71 -285 -178 -300 -29 -4 -55 -11 -58 -15 -3 -5 11 -44 31 -87 50
-108 67 -153 62 -159 -3 -2 -57 -7 -120 -11 -131 -7 -149 -1 -174 55 -17 39
-50 112 -79 175 l-17 37 -163 0 c-175 0 -179 -1 -187 -55 -13 -77 -40 -191
-48 -199 -10 -10 -259 -10 -269 -1 -4 5 54 316 79 425 5 19 14 62 20 95 26
140 47 251 60 310 5 22 11 52 15 68 l5 27 474 0 c433 0 477 -2 505 -17z m1161
2 c16 -8 40 -30 54 -48 21 -28 26 -45 26 -95 0 -34 -4 -81 -10 -104 -5 -24
-16 -79 -25 -123 -8 -44 -26 -134 -40 -200 -14 -66 -29 -142 -34 -170 -10 -68
-37 -121 -75 -148 -31 -22 -36 -22 -414 -25 -358 -3 -385 -2 -425 16 -54 24
-92 93 -83 151 8 54 24 140 35 196 6 28 15 73 20 100 15 85 51 258 61 291 6
17 10 37 10 46 0 41 51 102 100 121 8 3 185 6 393 6 317 1 383 -1 407 -14z
m818 -12 c6 -16 13 -48 17 -73 7 -45 16 -97 33 -180 38 -182 65 -321 69 -353
4 -28 9 -37 22 -35 16 3 27 43 51 183 6 33 15 83 21 110 19 92 28 140 38 195
6 30 16 82 23 115 l13 60 138 3 c114 2 137 0 137 -12 0 -8 -7 -50 -16 -93 -24
-118 -48 -244 -59 -308 -3 -22 -10 -56 -15 -75 -5 -19 -13 -60 -19 -90 -6 -30
-20 -100 -32 -155 -11 -55 -23 -119 -26 -143 -3 -25 -12 -46 -22 -51 -19 -9
-427 -7 -456 2 -17 6 -25 32 -54 174 -31 160 -37 189 -61 301 -6 26 -13 65
-16 87 -7 49 -35 127 -42 120 -3 -3 -9 -27 -13 -53 -12 -77 -26 -149 -54 -282
-31 -144 -39 -184 -53 -260 -18 -96 -7 -90 -159 -90 l-136 0 6 48 c4 26 11 70
17 97 5 28 14 75 20 105 5 30 14 73 19 95 14 65 83 398 87 425 7 41 26 134 30
148 3 9 60 12 242 12 l240 0 10 -27z m1704 22 c4 -5 0 -40 -20 -160 l-7 -40
-325 -5 c-179 -3 -326 -7 -327 -8 -4 -4 -22 -77 -38 -152 -46 -223 -57 -285
-53 -311 l3 -24 187 -3 188 -2 6 27 c3 16 10 41 15 57 20 62 16 66 -62 66 -64
0 -73 3 -99 29 -37 37 -44 66 -27 116 l14 40 253 3 252 2 -5 -32 c-4 -18 -9
-49 -12 -68 -3 -19 -10 -53 -15 -75 -4 -22 -14 -67 -20 -100 -29 -149 -64
-211 -145 -256 -37 -21 -58 -23 -300 -30 -269 -8 -448 0 -485 23 -11 7 -30 32
-41 55 -20 41 -20 45 -5 130 9 49 21 108 26 133 6 25 15 69 20 98 6 28 14 76
20 105 5 28 14 72 20 97 5 25 15 70 20 101 17 97 45 144 105 177 20 11 846 18
857 7z m-6808 -1161 c26 -26 35 -54 17 -54 -20 0 -41 13 -41 25 0 18 -60 25
-90 11 -22 -10 -25 -18 -28 -71 -4 -80 2 -100 37 -115 33 -13 64 -2 93 34 13
16 20 18 28 10 25 -25 -38 -84 -89 -84 -23 0 -70 19 -88 36 -20 19 -34 90 -27
136 11 64 49 98 112 98 40 0 54 -5 76 -26z m342 -11 c9 -21 19 -47 24 -58 11
-29 26 -65 45 -108 17 -39 14 -74 -6 -62 -5 4 -14 18 -19 31 -9 22 -15 24 -73
24 -59 0 -64 -2 -80 -30 -10 -16 -22 -30 -26 -30 -13 0 -21 26 -12 36 4 5 20
41 36 79 58 143 65 155 79 155 8 0 22 -17 32 -37z m294 -78 l5 -110 68 -5 c37
-3 67 -8 67 -12 0 -5 0 -12 0 -18 0 -11 -120 -14 -157 -4 -22 6 -23 10 -23
136 0 118 2 129 18 126 15 -3 18 -19 22 -113z m490 94 c0 -11 -27 -60 -60
-108 -33 -48 -60 -91 -60 -94 0 -4 24 -7 54 -7 70 0 91 -7 75 -26 -8 -10 -34
-14 -84 -14 -127 0 -131 11 -45 128 33 44 60 85 60 91 0 6 -20 11 -47 11 -53
0 -79 12 -69 29 4 7 40 11 92 11 78 0 84 -1 84 -21z m300 6 c0 -8 4 -23 10
-33 18 -30 80 -186 80 -199 0 -25 -32 -10 -43 20 -5 14 -19 17 -71 17 -62 0
-65 -1 -78 -30 -13 -30 -38 -41 -38 -17 0 7 9 32 20 55 11 22 20 46 20 52 0 5
5 19 10 30 6 11 15 29 20 40 6 11 10 25 10 32 0 16 30 48 47 48 7 0 13 -7 13
-15z m441 -16 c26 -28 29 -38 29 -98 0 -45 -5 -74 -16 -90 -20 -29 -72 -51
-118 -51 -67 0 -66 -1 -66 141 l0 129 71 0 c67 0 73 -2 100 -31z m395 13 c25
-20 44 -71 44 -119 0 -106 -92 -165 -177 -114 -31 19 -38 41 -45 131 -3 35 15
81 39 100 33 26 109 27 139 2z m613 -8 c30 -25 31 -29 31 -103 0 -52 -5 -83
-15 -98 -17 -24 -71 -43 -122 -43 -63 0 -63 0 -63 141 l0 129 69 0 c60 0 74
-3 100 -26z m406 15 c12 -18 -4 -24 -73 -29 -67 -5 -67 -5 -67 -35 0 -30 0
-30 63 -33 53 -3 63 -6 60 -20 -2 -13 -16 -18 -58 -20 -66 -4 -74 -10 -65 -51
6 -30 8 -30 73 -33 54 -2 67 -6 70 -20 3 -16 -6 -18 -87 -18 -86 0 -91 1 -96
23 -4 16 0 230 4 245 3 8 171 0 176 -9z m565 -16 c28 -36 11 -52 -27 -24 -38
28 -103 20 -103 -13 0 -30 19 -46 55 -46 16 0 45 -9 63 -20 28 -17 32 -25 32
-60 0 -35 -4 -43 -32 -60 -18 -11 -46 -20 -61 -20 -35 0 -83 24 -97 49 -14 28
9 33 37 9 41 -37 123 -22 123 23 0 25 -42 45 -101 48 -8 1 -26 11 -38 22 -19
18 -22 29 -18 56 8 47 31 62 94 63 44 0 55 -4 73 -27z m388 10 c-3 -15 -15
-18 -73 -18 l-70 -1 -3 -36 -3 -37 63 -3 c48 -2 63 -7 63 -18 0 -11 -15 -16
-62 -18 l-63 -3 0 -39 0 -39 73 -3 c56 -2 72 -6 72 -18 0 -12 -16 -16 -75 -18
-41 -1 -80 1 -87 6 -13 8 -18 78 -15 190 l2 72 91 0 c81 0 90 -2 87 -17z m366
-14 c25 -29 27 -49 5 -49 -6 0 -19 10 -29 22 -12 16 -28 22 -55 22 -51 0 -75
-30 -75 -96 0 -62 11 -83 52 -97 28 -10 36 -9 58 7 14 11 25 29 25 43 0 19 -5
23 -29 24 -16 0 -31 6 -33 13 -3 8 10 12 46 12 34 0 51 -4 52 -12 0 -7 2 -20
4 -29 1 -9 -4 -30 -12 -47 -20 -42 -71 -59 -124 -42 -60 20 -73 50 -70 166 2
62 38 94 106 94 47 0 56 -4 79 -31z m238 -16 c0 -27 0 -59 -1 -73 -3 -40 27
-100 54 -110 32 -12 74 6 80 34 3 12 6 59 7 106 3 77 5 85 23 85 19 0 20 -7
20 -95 0 -74 -4 -102 -17 -122 -41 -63 -157 -57 -184 9 -14 33 -20 194 -7 206
16 16 23 4 25 -40z m552 21 c33 -34 33 -64 0 -103 l-25 -30 26 -47 c19 -34 23
-50 15 -58 -12 -12 -38 16 -65 70 -16 34 -32 44 -71 44 -23 0 -24 -3 -24 -56
0 -47 -3 -55 -17 -52 -16 3 -18 18 -21 118 -1 62 0 120 2 127 4 9 28 13 79 13
67 0 77 -3 101 -26z m236 -109 c0 -113 -2 -135 -15 -135 -13 0 -15 22 -15 135
0 113 2 135 15 135 13 0 15 -22 15 -135z m359 121 c35 -19 51 -55 51 -117 0
-60 -22 -106 -56 -119 -38 -15 -127 -20 -141 -8 -14 11 -19 239 -6 251 12 13
124 7 152 -7z m358 -8 c21 -45 54 -120 70 -161 9 -23 21 -48 26 -55 7 -9 7
-16 -1 -24 -13 -13 -38 4 -47 33 -5 16 -16 19 -68 19 -59 0 -63 -2 -79 -31
-10 -17 -23 -27 -29 -24 -12 8 -6 40 20 99 11 22 31 69 47 104 29 66 44 76 61
40z m435 -1 c30 -24 42 -60 40 -120 -2 -62 -27 -102 -71 -116 -50 -14 -114
-14 -129 1 -13 13 -18 239 -5 251 3 4 36 7 72 7 54 0 71 -4 93 -23z"/>
<path d="M2961 4501 c-13 -23 -32 -124 -34 -176 l-2 -40 250 0 250 0 12 25 c6
14 19 58 27 99 24 115 34 111 -255 111 -223 0 -239 -1 -248 -19z"/>
<path d="M4230 4504 c-8 -8 -17 -36 -22 -62 -20 -118 -28 -160 -38 -202 -19
-83 -33 -188 -27 -204 6 -14 33 -16 207 -16 l200 0 11 28 c6 15 15 52 19 82 5
30 10 62 13 70 3 8 10 49 17 90 7 41 16 86 20 100 19 58 21 98 5 114 -24 24
-386 24 -405 0z"/>
<path d="M864 3493 c-3 -10 -10 -26 -15 -35 -16 -31 -10 -38 36 -38 50 0 51 1
27 49 -20 40 -40 50 -48 24z"/>
<path d="M1952 3478 c-11 -24 -17 -46 -15 -50 6 -12 83 -9 83 2 0 18 -27 77
-38 84 -6 4 -19 -12 -30 -36z"/>
<path d="M2316 3548 c-10 -6 -13 -28 -10 -90 2 -46 4 -86 4 -90 0 -14 75 -8
97 7 31 22 40 92 18 138 -14 30 -22 36 -56 39 -22 2 -46 0 -53 -4z"/>
<path d="M2740 3550 c-30 -7 -45 -60 -35 -125 16 -109 135 -78 135 35 0 70
-39 105 -100 90z"/>
<path d="M3314 3537 c-3 -8 -4 -49 -2 -93 l3 -79 52 0 c29 1 59 7 65 13 18 18
17 134 -1 155 -17 21 -109 24 -117 4z"/>
<path d="M5820 3510 c0 -50 16 -58 78 -38 36 11 48 19 50 37 5 31 -12 41 -75
41 l-53 0 0 -40z"/>
<path d="M6442 3458 l3 -93 42 -3 c60 -4 83 21 83 91 0 75 -18 97 -81 97 l-50
0 3 -92z"/>
<path d="M6874 3493 c-3 -10 -10 -26 -15 -35 -16 -31 -10 -38 36 -38 50 0 51
2 30 54 -16 38 -42 48 -51 19z"/>
<path d="M7233 3458 c2 -89 3 -93 25 -96 24 -4 82 15 82 27 1 3 2 33 4 66 4
76 -10 95 -70 95 l-42 0 1 -92z m77 -2 c0 -3 -4 -8 -10 -11 -5 -3 -10 -1 -10
4 0 6 5 11 10 11 6 0 10 -2 10 -4z"/>
</g>
</svg>
